<svg width="24" height="25" viewBox="0 0 24 25" fill="none" xmlns="http://www.w3.org/2000/svg">
<path id="Vector" d="M0 12.1724C0 15.355 1.26428 18.4073 3.51472 20.6577C5.76516 22.9081 8.8174 24.1724 12 24.1724C15.1826 24.1724 18.2348 22.9081 20.4853 20.6577C22.7357 18.4073 24 15.355 24 12.1724C24 8.98983 22.7357 5.93758 20.4853 3.68714C18.2348 1.43671 15.1826 0.172424 12 0.172424C8.8174 0.172424 5.76516 1.43671 3.51472 3.68714C1.26428 5.93758 0 8.98983 0 12.1724ZM13.8094 6.50524L18.4922 11.5255C18.6562 11.7037 18.75 11.9334 18.75 12.1724C18.75 12.4115 18.6562 12.6459 18.4922 12.8193L13.8094 17.8396C13.6125 18.0505 13.3359 18.1724 13.0453 18.1724C12.4687 18.1724 12 17.7037 12 17.1271V14.4224H7.5C6.67031 14.4224 6 13.7521 6 12.9224V11.4224C6 10.5927 6.67031 9.92242 7.5 9.92242H12V7.21774C12 6.64117 12.4687 6.17242 13.0453 6.17242C13.3359 6.17242 13.6125 6.2943 13.8094 6.50524Z" fill="#6D5095"/>
</svg>
