<svg width="43" height="32" viewBox="0 0 43 32" fill="none" xmlns="http://www.w3.org/2000/svg">
<path id="Vector" d="M4 0C1.79167 0 0 1.79167 0 4C0 5.25833 0.591667 6.44167 1.6 7.2L19.7333 20.8C20.6833 21.5083 21.9833 21.5083 22.9333 20.8L41.0667 7.2C42.075 6.44167 42.6667 5.25833 42.6667 4C42.6667 1.79167 40.875 0 38.6667 0H4ZM0 9.33333V26.6667C0 29.6083 2.39167 32 5.33333 32H37.3333C40.275 32 42.6667 29.6083 42.6667 26.6667V9.33333L24.5333 22.9333C22.6333 24.3583 20.0333 24.3583 18.1333 22.9333L0 9.33333Z" fill="#6D5095"/>
</svg>
