<svg width="40" height="41" viewBox="0 0 40 41" fill="none" xmlns="http://www.w3.org/2000/svg">
<g id="instagram">
<path id="Vector" d="M20.0045 10.4169C14.3291 10.4169 9.75125 14.9958 9.75125 20.6724C9.75125 26.3491 14.3291 30.9279 20.0045 30.9279C25.6799 30.9279 30.2577 26.3491 30.2577 20.6724C30.2577 14.9958 25.6799 10.4169 20.0045 10.4169ZM20.0045 27.3398C16.3369 27.3398 13.3385 24.3498 13.3385 20.6724C13.3385 16.9951 16.3279 14.005 20.0045 14.005C23.681 14.005 26.6704 16.9951 26.6704 20.6724C26.6704 24.3498 23.6721 27.3398 20.0045 27.3398ZM33.0686 9.99743C33.0686 11.3273 31.9978 12.3895 30.6771 12.3895C29.3475 12.3895 28.2856 11.3184 28.2856 9.99743C28.2856 8.67644 29.3564 7.60537 30.6771 7.60537C31.9978 7.60537 33.0686 8.67644 33.0686 9.99743ZM39.8595 12.4252C39.7078 9.2209 38.976 6.38257 36.6291 4.04406C34.2911 1.70556 31.4534 0.973663 28.2499 0.813002C24.9481 0.625565 15.0519 0.625565 11.7501 0.813002C8.55549 0.964737 5.71779 1.69663 3.37089 4.03514C1.02398 6.37364 0.301171 9.21198 0.140547 12.4163C-0.0468489 15.7187 -0.0468489 25.6172 0.140547 28.9197C0.292248 32.1239 1.02398 34.9623 3.37089 37.3008C5.71779 39.6393 8.54657 40.3712 11.7501 40.5318C15.0519 40.7193 24.9481 40.7193 28.2499 40.5318C31.4534 40.3801 34.2911 39.6482 36.6291 37.3008C38.9671 34.9623 39.6988 32.1239 39.8595 28.9197C40.0468 25.6172 40.0468 15.7277 39.8595 12.4252ZM35.594 32.4631C34.8979 34.2125 33.5505 35.5603 31.7925 36.2654C29.1601 37.3097 22.9136 37.0687 20.0045 37.0687C17.0954 37.0687 10.8399 37.3008 8.2164 36.2654C6.46737 35.5692 5.11991 34.2215 4.41495 32.4631C3.37089 29.8301 3.61182 23.5822 3.61182 20.6724C3.61182 17.7627 3.37981 11.5059 4.41495 8.88173C5.11099 7.13232 6.45845 5.78455 8.2164 5.07943C10.8489 4.03514 17.0954 4.27613 20.0045 4.27613C22.9136 4.27613 29.169 4.04406 31.7925 5.07943C33.5416 5.77563 34.889 7.12339 35.594 8.88173C36.638 11.5148 36.3971 17.7627 36.3971 20.6724C36.3971 23.5822 36.638 29.839 35.594 32.4631Z" fill="white"/>
</g>
</svg>
