<svg width="32" height="33" viewBox="0 0 32 33" fill="none" xmlns="http://www.w3.org/2000/svg">
<path d="M16 32.1724C20.2435 32.1724 24.3131 30.4867 27.3137 27.4861C30.3143 24.4856 32 20.4159 32 16.1724C32 11.929 30.3143 7.8593 27.3137 4.85872C24.3131 1.85813 20.2435 0.172424 16 0.172424C11.7565 0.172424 7.68687 1.85813 4.68629 4.85872C1.68571 7.8593 0 11.929 0 16.1724C0 20.4159 1.68571 24.4856 4.68629 27.4861C7.68687 30.4867 11.7565 32.1724 16 32.1724ZM14.5 21.6724V17.6724H10.5C9.66875 17.6724 9 17.0037 9 16.1724C9 15.3412 9.66875 14.6724 10.5 14.6724H14.5V10.6724C14.5 9.84117 15.1687 9.17242 16 9.17242C16.8312 9.17242 17.5 9.84117 17.5 10.6724V14.6724H21.5C22.3312 14.6724 23 15.3412 23 16.1724C23 17.0037 22.3312 17.6724 21.5 17.6724H17.5V21.6724C17.5 22.5037 16.8312 23.1724 16 23.1724C15.1687 23.1724 14.5 22.5037 14.5 21.6724Z" fill="#6D5095"/>
</svg>
